<svg height="512pt" viewBox="-59 0 512 512.00004" width="512pt" xmlns="http://www.w3.org/2000/svg"><path d="m205.222656 512h-18.078125c-19.96875 0-36.15625-16.1875-36.15625-36.15625l9.039063-9.039062h63.273437l18.078125 9.039062c0 19.96875-16.1875 36.15625-36.15625 36.15625zm0 0" fill="#ea9d2d"/><path d="m196.183594 267.945312c-4.992188 0-9.039063-4.046874-9.039063-9.039062v-171.742188c0-4.992187 4.046875-9.039062 9.039063-9.039062 4.992187 0 9.039062 4.046875 9.039062 9.039062v171.742188c0 4.992188-4.046875 9.039062-9.039062 9.039062zm0 0" fill="#6fbbc6"/><path d="m342.691406 179.027344-140.105468-68.007813-144.625-70.390625c-4.496094-2.183594-9.910157-.316406-12.097657 4.179688-2.183593 4.492187-.316406 9.90625 4.179688 12.09375l144.625 70.394531 121.9375 59.296875h.050781l18.179688 8.695312c4.566406 2.011719 9.902343-.058593 11.914062-4.628906 1.914062-4.34375.140625-9.429687-4.058594-11.640625zm0 0" fill="#69b0bb"/><path d="m346.882812 44.824219c-2.160156-4.492188-7.550781-6.382813-12.046874-4.230469l-18.179688 8.707031h-.054688l-121.828124 59.285157h-.097657l-144.625 70.40625c-4.492187 2.175781-6.371093 7.582031-4.195312 12.074218 1.515625 3.128906 4.6875 5.109375 8.164062 5.101563 1.367188.003906 2.71875-.304688 3.949219-.90625l144.625-70.394531 140.105469-68.011719c4.464843-2.179688 6.332031-7.550781 4.183593-12.03125zm0 0" fill="#a8d6da"/><path d="m81.386719 58.78125-11.855469 24.40625-65.027344-31.636719 11.859375-24.40625c8.734375-17.957031 30.371094-25.433593 48.328125-16.695312h.003906c17.953126 8.734375 25.429688 30.375 16.695313 48.328125 0 .003906 0 .003906-.003906.003906zm0 0" fill="#8aced8"/><path d="m317.921875 179.109375 11.859375-24.40625 65.027344 31.636719-11.859375 24.40625c-8.734375 17.957031-30.371094 25.429687-48.328125 16.695312h-.003906c-17.957032-8.734375-25.429688-30.375-16.695313-48.328125 0-.003906 0-.003906 0-.003906zm0 0" fill="#8aced8"/><path d="m3.652344 210.183594 11.859375 24.40625 65.027343-31.636719-11.859374-24.40625c-8.734376-17.953125-30.375-25.429687-48.332032-16.695313-17.957031 8.738282-25.433594 30.375-16.695312 48.332032zm0 0" fill="#b8eaee"/><path d="m390.984375 24.40625-11.859375-24.40625-65.023438 31.636719 11.859376 24.40625c8.746093 17.921875 30.355468 25.375 48.292968 16.660156 17.949219-8.722656 25.441406-30.339844 16.730469-48.296875zm0 0" fill="#b8eaee"/><path d="m232.339844 259.53125-9.039063 17.453125h-54.234375l-9.039062-17.453125v-.625c0-19.96875 16.191406-36.15625 36.15625-36.15625 19.96875 0 36.15625 16.1875 36.15625 36.15625zm0 0" fill="#69b0bb"/><path d="m250.417969 286.023438v189.820312h-108.46875v-189.820312" fill="#b9b9b9"/><path d="m178.105469 358.335938h36.15625c4.992187 0 9.039062 4.046874 9.039062 9.039062v36.15625c0 4.992188-4.046875 9.039062-9.039062 9.039062h-36.15625c-4.992188 0-9.039063-4.046874-9.039063-9.039062v-36.15625c0-4.992188 4.046875-9.039062 9.039063-9.039062zm0 0" fill="#b8eaee"/><path d="m184.136719 367.375h24.097656c3.328125 0 6.027344 2.699219 6.027344 6.027344v24.101562c0 3.328125-2.699219 6.027344-6.027344 6.027344h-24.097656c-3.332031 0-6.03125-2.699219-6.03125-6.027344v-24.101562c0-3.328125 2.699219-6.027344 6.03125-6.027344zm0 0" fill="#c0f5f9"/><path d="m236.363281 493.921875c3.253907-5.472656 4.984375-11.710937 5.015625-18.078125h-90.390625c.035157 6.363281 1.765625 12.605469 5.019531 18.078125zm0 0" fill="#da922a"/><path d="m169.066406 259.53125h54.234375c14.976563 0 27.117188 12.140625 27.117188 27.117188v26.492187h-108.46875v-26.492187c0-14.976563 12.140625-27.117188 27.117187-27.117188zm0 0" fill="#fbb540"/></svg>