<svg enable-background="new 0 0 32 32" height="512" viewBox="0 0 32 32" width="512" xmlns="http://www.w3.org/2000/svg"><path d="m26 32h-20c-3.314 0-6-2.686-6-6v-20c0-3.314 2.686-6 6-6h20c3.314 0 6 2.686 6 6v20c0 3.314-2.686 6-6 6z" fill="#fff9dd"/><path d="m23.229 15.609c.313-.894 1.103-1.703.623-2.862-.642-1.549-2.631-1.107-3.016-2.135l-.507-1.35c-.395-1.053-1.601-1.553-2.625-1.087l-1.313.596s0 0-.001 0c-.989.451-2.094-1.263-3.642-.622-1.148.476-1.15 1.564-1.583 2.464-.238.636-.852.592-1.902 1.059-1.053.394-1.554 1.601-1.088 2.626.41 1.066.878 1.474.596 2.094-.313.894-1.103 1.703-.623 2.862.632 1.525 2.648 1.153 3.016 2.135.411.854.425 1.983 1.583 2.464 1.564.647 2.649-1.071 3.643-.623.924.323 1.727 1.093 2.861.623 1.148-.476 1.15-1.564 1.583-2.464.238-.636.852-.592 1.902-1.059 1.053-.394 1.554-1.601 1.088-2.626.001-.001-.876-1.475-.595-2.095zm-3.881.744-2.985 3.158c-.639.674-1.158-.712-3.711-3.158-.865-.915-.865-2.404 0-3.318.854-.904 2.359-.904 3.214 0l.134.141.134-.142c.854-.904 2.359-.904 3.214 0 .865.915.865 2.404 0 3.319z" fill="#ffd200"/></svg>