<svg fill="none" height="512" viewBox="0 0 24 24" width="512" xmlns="http://www.w3.org/2000/svg"><path d="m17.25 4c0-.9665.7835-1.75 1.75-1.75s1.75.7835 1.75 1.75c0 .6981-.4088 1.30073-1 1.58159v3.41841c0 .41421-.3358.75-.75.75s-.75-.33579-.75-.75v-3.41841c-.5912-.28086-1-.88349-1-1.58159z" fill="#486472"/><path clip-rule="evenodd" d="m19 2.25v7.5c-.4142 0-.75-.33579-.75-.75v-3.41841c-.5912-.28086-1-.88349-1-1.58159 0-.9665.7835-1.75 1.75-1.75z" fill="#354d58" fill-rule="evenodd"/><path d="m4 8.25c-1.51878 0-2.75 1.23122-2.75 2.75v8c0 1.5188 1.23122 2.75 2.75 2.75h16c1.5188 0 2.75-1.2312 2.75-2.75v-8c0-1.51878-1.2312-2.75-2.75-2.75z" fill="#2196f3"/><path d="m12 8.25v13.5h-8c-1.51878 0-2.75-1.2312-2.75-2.75v-8c0-1.51878 1.23122-2.75 2.75-2.75z" fill="#1e81d0"/><g fill="#fafafa"><path d="m17 12.25c-1.5188 0-2.75 1.2312-2.75 2.75s1.2312 2.75 2.75 2.75 2.75-1.2312 2.75-2.75-1.2312-2.75-2.75-2.75z"/><path d="m4.25 12c0-.4142.33579-.75.75-.75h6c.4142 0 .75.3358.75.75s-.3358.75-.75.75h-6c-.41421 0-.75-.3358-.75-.75z"/><path d="m4.25 15c0-.4142.33579-.75.75-.75h6c.4142 0 .75.3358.75.75s-.3358.75-.75.75h-6c-.41421 0-.75-.3358-.75-.75z"/><path d="m5 17.25c-.41421 0-.75.3358-.75.75s.33579.75.75.75h6c.4142 0 .75-.3358.75-.75s-.3358-.75-.75-.75z"/></g><path clip-rule="evenodd" d="m11.7073 11.75c-.1029-.2913-.3807-.5-.7073-.5h-6c-.32655 0-.60436.2087-.70732.5.10296.2913.38077.5.70732.5h6c.3266 0 .6044-.2087.7073-.5zm0 3c-.1029-.2913-.3807-.5-.7073-.5h-6c-.32655 0-.60436.2087-.70732.5.10296.2913.38077.5.70732.5h6c.3266 0 .6044-.2087.7073-.5zm0 3c-.1029-.2913-.3807-.5-.7073-.5h-6c-.32655 0-.60436.2087-.70732.5.10296.2913.38077.5.70732.5h6c.3266 0 .6044-.2087.7073-.5z" fill="#eceff1" fill-rule="evenodd"/></svg>