<?xml version="1.0" encoding="iso-8859-1"?>
<!-- Generator: Adobe Illustrator 19.0.0, SVG Export Plug-In . SVG Version: 6.00 Build 0)  -->
<svg version="1.1" id="Capa_1" xmlns="http://www.w3.org/2000/svg" xmlns:xlink="http://www.w3.org/1999/xlink" x="0px" y="0px"
	 viewBox="0 0 512 512" style="enable-background:new 0 0 512 512;" xml:space="preserve">
<path style="fill:#455A64;" d="M32,192.005c-6.432,0-12.512-3.936-14.944-10.304c-3.136-8.256,0.992-17.504,9.248-20.64l336-128
	c8.256-3.168,17.504,0.96,20.64,9.248c3.168,8.256-0.96,17.504-9.248,20.672l-336,128C35.84,191.685,33.888,192.005,32,192.005z"/>
<path style="fill:#F44336;" d="M480,160.005H32c-17.632,0-32,14.368-32,32v256c0,17.664,14.368,32,32,32h448
	c17.664,0,32-14.336,32-32v-256C512,174.373,497.664,160.005,480,160.005z"/>
<path style="fill:#FAFAFA;" d="M160,416.005c-52.928,0-96-43.072-96-96s43.072-96,96-96s96,43.072,96,96
	S212.928,416.005,160,416.005z"/>
<g>
	<rect x="320" y="256.005" style="fill:#455A64;" width="128" height="32"/>
	<rect x="320" y="320.005" style="fill:#455A64;" width="128" height="32"/>
	<rect x="320" y="384.005" style="fill:#455A64;" width="128" height="32"/>
</g>
<g>
</g>
<g>
</g>
<g>
</g>
<g>
</g>
<g>
</g>
<g>
</g>
<g>
</g>
<g>
</g>
<g>
</g>
<g>
</g>
<g>
</g>
<g>
</g>
<g>
</g>
<g>
</g>
<g>
</g>
</svg>
