<svg height="512" viewBox="0 0 128 128" width="512" xmlns="http://www.w3.org/2000/svg"><g><path d="m111.714 41.313a14.516 14.516 0 0 0 -3.616.471 20.9 20.9 0 0 0 -17.529-13.125 34.317 34.317 0 0 0 -66.118-3.279c-.066 0-.13 0-.2 0a22.505 22.505 0 0 0 0 45.01h87.459a14.536 14.536 0 0 0 0-29.072z" fill="#cae8f9"/><path d="m33.954 30.243a1.75 1.75 0 0 1 -1.663-2.295 26.011 26.011 0 0 1 24.771-17.948 1.75 1.75 0 0 1 0 3.5 22.516 22.516 0 0 0 -21.445 15.538 1.751 1.751 0 0 1 -1.663 1.205z" fill="#81c8ee"/><path d="m72.694 119.117a1.753 1.753 0 0 1 -1.034-.338l-7.66-5.608-7.66 5.608a1.75 1.75 0 0 1 -2.774-1.6l1.027-9.438-8.688-3.831a1.75 1.75 0 0 1 0-3.2l8.688-3.831-1.027-9.438a1.751 1.751 0 0 1 2.774-1.6l7.66 5.603 7.66-5.608a1.751 1.751 0 0 1 2.774 1.6l-1.027 9.438 8.688 3.831a1.75 1.75 0 0 1 0 3.2l-8.688 3.831 1.027 9.438a1.749 1.749 0 0 1 -1.74 1.939zm-8.694-9.865a1.751 1.751 0 0 1 1.034.338l5.491 4.021-.735-6.766a1.749 1.749 0 0 1 1.033-1.791l6.228-2.746-6.228-2.747a1.747 1.747 0 0 1 -1.033-1.79l.735-6.766-5.491 4.02a1.75 1.75 0 0 1 -2.068 0l-5.491-4.02.735 6.766a1.747 1.747 0 0 1 -1.033 1.79l-6.228 2.747 6.228 2.746a1.749 1.749 0 0 1 1.033 1.791l-.735 6.766 5.491-4.021a1.751 1.751 0 0 1 1.034-.338z" fill="#81c8ee"/><g fill="#cae8f9"><path d="m81.534 94.206 4.628.908a1.71 1.71 0 0 0 .339.034 1.75 1.75 0 0 0 .335-3.468l-3.3-.649 1.09-3.184a1.75 1.75 0 1 0 -3.311-1.134l-1.527 4.461-14.035 8.1v-16.202l3.1-3.553a1.75 1.75 0 1 0 -2.637-2.3l-2.216 2.535-2.213-2.536a1.75 1.75 0 1 0 -2.637 2.3l3.1 3.553v16.207l-14.035-8.1-1.528-4.461a1.749 1.749 0 1 0 -3.31 1.134l1.09 3.184-3.3.649a1.75 1.75 0 0 0 .335 3.468 1.71 1.71 0 0 0 .339-.034l4.628-.908 14.034 8.1-14.035 8.1-4.627-.908a1.75 1.75 0 0 0 -.674 3.435l3.3.647-1.09 3.185a1.749 1.749 0 1 0 3.31 1.134l1.528-4.462 14.035-8.1v16.207l-3.1 3.553a1.75 1.75 0 1 0 2.637 2.3l2.213-2.537 2.213 2.536a1.75 1.75 0 1 0 2.637-2.3l-3.1-3.553v-16.207l14.035 8.1 1.527 4.462a1.75 1.75 0 1 0 3.311-1.134l-1.09-3.185 3.3-.647a1.75 1.75 0 0 0 -.674-3.435l-4.628.908-14.034-8.1z"/><path d="m120.705 95.339-2.17.426-6-3.464 6-3.464 2.17.426a1.794 1.794 0 0 0 .339.033 1.75 1.75 0 0 0 .335-3.468l-.845-.165.278-.814a1.749 1.749 0 1 0 -3.31-1.134l-.716 2.091-6 3.464v-6.928l1.452-1.665a1.75 1.75 0 1 0 -2.636-2.3l-.566.648-.566-.648a1.75 1.75 0 1 0 -2.637 2.3l1.453 1.665v6.928l-6-3.464-.716-2.091a1.75 1.75 0 0 0 -3.312 1.133l.279.815-.845.165a1.75 1.75 0 0 0 .335 3.468 1.786 1.786 0 0 0 .339-.033l2.169-.426 6 3.464-6 3.464-2.169-.426a1.75 1.75 0 0 0 -.674 3.435l.845.166-.279.814a1.751 1.751 0 0 0 1.09 2.222 1.72 1.72 0 0 0 .566.095 1.752 1.752 0 0 0 1.656-1.184l.716-2.091 6-3.464v6.928l-1.453 1.666a1.75 1.75 0 0 0 2.637 2.3l.566-.649.565.649a1.75 1.75 0 0 0 2.638-2.3l-1.453-1.666v-6.927l6 3.463.716 2.091a1.75 1.75 0 0 0 1.655 1.184 1.767 1.767 0 0 0 .568-.095 1.749 1.749 0 0 0 1.087-2.223l-.278-.813.845-.166a1.75 1.75 0 0 0 -.674-3.435z"/><path d="m28.464 88.837 2.169.426a1.786 1.786 0 0 0 .339.033 1.751 1.751 0 0 0 .335-3.468l-.845-.165.279-.815a1.75 1.75 0 0 0 -3.312-1.133l-.716 2.091-6 3.464v-6.928l1.453-1.665a1.75 1.75 0 1 0 -2.637-2.3l-.566.648-.566-.648a1.75 1.75 0 1 0 -2.636 2.3l1.452 1.665v6.928l-6-3.464-.713-2.091a1.75 1.75 0 1 0 -3.311 1.134l.279.814-.845.165a1.75 1.75 0 0 0 .333 3.472 1.794 1.794 0 0 0 .339-.033l2.169-.426 6 3.464-6 3.464-2.164-.43a1.75 1.75 0 0 0 -.674 3.435l.845.166-.279.813a1.75 1.75 0 1 0 3.311 1.134l.716-2.091 6-3.463v6.927l-1.453 1.666a1.75 1.75 0 0 0 2.638 2.3l.565-.649.566.649a1.75 1.75 0 1 0 2.637-2.3l-1.453-1.666v-6.928l6 3.464.716 2.091a1.751 1.751 0 0 0 1.656 1.184 1.724 1.724 0 0 0 .566-.095 1.751 1.751 0 0 0 1.09-2.222l-.279-.814.845-.166a1.75 1.75 0 0 0 -.674-3.435l-2.169.426-6-3.464z"/></g></g></svg>