<svg id="Capa_1" enable-background="new 0 0 510.606 510.606" height="512" viewBox="0 0 510.606 510.606" width="512" xmlns="http://www.w3.org/2000/svg"><g><g><g><path d="m229.082 0-21.213 21.213 32.435 32.435v101.896l-88.245-50.948-11.872-44.307-28.979 7.766 9.599 35.819-35.819 9.598 7.766 28.978 44.307-11.872 88.244 50.948-88.245 50.948-44.307-11.871-7.764 28.978 35.819 9.597-9.597 35.821 28.979 7.764 11.871-44.308 88.244-50.947v101.892l-32.435 32.435 21.213 21.213 26.222-26.222 10-155.302-10-155.302z" fill="#96c8ef"/><path d="m417.852 220.599-44.307 11.872-88.242-50.947 88.244-50.947 44.307 11.872 7.764-28.977-35.819-9.598 9.598-35.82-28.979-7.764-11.872 44.307-88.243 50.947v-101.897l32.435-32.434-21.213-21.213-26.222 26.222v310.604-.001l26.223 26.222 21.213-21.214-32.436-32.434v-101.894l88.242 50.947 11.872 44.307 28.979-7.765-9.598-35.819 35.82-9.598z" fill="#6aa9ff"/></g><path d="m255.303 222.762c-22.775 0-41.237-18.462-41.237-41.237s18.462-41.237 41.237-41.237l20 41.237z" fill="#fff5f5"/><path d="m255.303 140.287c22.775 0 41.237 18.462 41.237 41.237s-18.462 41.237-41.237 41.237z" fill="#e7ecf0"/></g><path d="m348.087 382.771s-34.248 73.196-34.248 93.587c0 18.915 15.333 34.248 34.248 34.248s34.248-15.333 34.248-34.248c0-20.391-34.248-93.587-34.248-93.587z" fill="#96c8ef"/><path d="m469.509 300.297s-34.248 73.196-34.248 93.587c0 18.915 15.333 34.248 34.248 34.248s34.248-15.333 34.248-34.248c0-20.391-34.248-93.587-34.248-93.587z" fill="#96c8ef"/><g fill="#beebfa"><path d="m41.098 300.297s-34.248 73.196-34.248 93.587c0 18.915 15.333 34.248 34.248 34.248s34.248-15.333 34.248-34.248c0-20.391-34.248-93.587-34.248-93.587z"/><path d="m162.52 382.771s-34.248 73.196-34.248 93.587c0 18.915 15.333 34.248 34.248 34.248s34.248-15.333 34.248-34.248c0-20.391-34.248-93.587-34.248-93.587z"/></g></g></svg>